<svg width="18" height="16" viewBox="0 0 18 16" fill="none" xmlns="http://www.w3.org/2000/svg">
<path d="M15.875 3.375H12.75V2.75C12.75 2.25272 12.5525 1.77581 12.2008 1.42417C11.8492 1.07254 11.3723 0.875 10.875 0.875H7.125C6.62772 0.875 6.15081 1.07254 5.79917 1.42417C5.44754 1.77581 5.25 2.25272 5.25 2.75V3.375H2.125C1.79348 3.375 1.47554 3.5067 1.24112 3.74112C1.0067 3.97554 0.875 4.29348 0.875 4.625V14.625C0.875 14.9565 1.0067 15.2745 1.24112 15.5089C1.47554 15.7433 1.79348 15.875 2.125 15.875H15.875C16.2065 15.875 16.5245 15.7433 16.7589 15.5089C16.9933 15.2745 17.125 14.9565 17.125 14.625V4.625C17.125 4.29348 16.9933 3.97554 16.7589 3.74112C16.5245 3.5067 16.2065 3.375 15.875 3.375ZM10.875 10.25H9.625V11.5C9.625 11.6658 9.55915 11.8247 9.44194 11.9419C9.32473 12.0592 9.16576 12.125 9 12.125C8.83424 12.125 8.67527 12.0592 8.55806 11.9419C8.44085 11.8247 8.375 11.6658 8.375 11.5V10.25H7.125C6.95924 10.25 6.80027 10.1842 6.68306 10.0669C6.56585 9.94973 6.5 9.79076 6.5 9.625C6.5 9.45924 6.56585 9.30027 6.68306 9.18306C6.80027 9.06585 6.95924 9 7.125 9H8.375V7.75C8.375 7.58424 8.44085 7.42527 8.55806 7.30806C8.67527 7.19085 8.83424 7.125 9 7.125C9.16576 7.125 9.32473 7.19085 9.44194 7.30806C9.55915 7.42527 9.625 7.58424 9.625 7.75V9H10.875C11.0408 9 11.1997 9.06585 11.3169 9.18306C11.4342 9.30027 11.5 9.45924 11.5 9.625C11.5 9.79076 11.4342 9.94973 11.3169 10.0669C11.1997 10.1842 11.0408 10.25 10.875 10.25ZM11.5 3.375H6.5V2.75C6.5 2.58424 6.56585 2.42527 6.68306 2.30806C6.80027 2.19085 6.95924 2.125 7.125 2.125H10.875C11.0408 2.125 11.1997 2.19085 11.3169 2.30806C11.4342 2.42527 11.5 2.58424 11.5 2.75V3.375Z" fill="#4D4D4D"/>
</svg>
