<svg width="16" height="16" viewBox="0 0 16 16" fill="none" xmlns="http://www.w3.org/2000/svg">
<path d="M8 7.375H5.5V3.625H8C8.49728 3.625 8.97419 3.82254 9.32583 4.17417C9.67746 4.52581 9.875 5.00272 9.875 5.5C9.875 5.99728 9.67746 6.47419 9.32583 6.82583C8.97419 7.17746 8.49728 7.375 8 7.375ZM15.5 1.75V14.25C15.5 14.5815 15.3683 14.8995 15.1339 15.1339C14.8995 15.3683 14.5815 15.5 14.25 15.5H1.75C1.41848 15.5 1.10054 15.3683 0.866116 15.1339C0.631696 14.8995 0.5 14.5815 0.5 14.25V1.75C0.5 1.41848 0.631696 1.10054 0.866116 0.866116C1.10054 0.631696 1.41848 0.5 1.75 0.5H14.25C14.5815 0.5 14.8995 0.631696 15.1339 0.866116C15.3683 1.10054 15.5 1.41848 15.5 1.75ZM12.8172 12.5578L11.6961 11.4375L12.8172 10.3172C12.9345 10.1999 13.0003 10.0409 13.0003 9.875C13.0003 9.70915 12.9345 9.55009 12.8172 9.43281C12.6999 9.31554 12.5409 9.24965 12.375 9.24965C12.2091 9.24965 12.0501 9.31554 11.9328 9.43281L10.8125 10.5539L8.78125 8.52266C9.51494 8.33014 10.1536 7.87735 10.578 7.2487C11.0025 6.62006 11.1838 5.85849 11.0882 5.10602C10.9926 4.35354 10.6265 3.66154 10.0583 3.15904C9.4901 2.65655 8.75852 2.37788 8 2.375H4.875C4.70924 2.375 4.55027 2.44085 4.43306 2.55806C4.31585 2.67527 4.25 2.83424 4.25 3V11.75C4.25 11.9158 4.31585 12.0747 4.43306 12.1919C4.55027 12.3092 4.70924 12.375 4.875 12.375C5.04076 12.375 5.19973 12.3092 5.31694 12.1919C5.43415 12.0747 5.5 11.9158 5.5 11.75V8.625H7.11641L9.92891 11.4375L8.80781 12.5578C8.69054 12.6751 8.62465 12.8341 8.62465 13C8.62465 13.1659 8.69054 13.3249 8.80781 13.4422C8.92509 13.5595 9.08415 13.6253 9.25 13.6253C9.41585 13.6253 9.57491 13.5595 9.69219 13.4422L10.8125 12.3211L11.9328 13.4422C11.9909 13.5003 12.0598 13.5463 12.1357 13.5777C12.2116 13.6092 12.2929 13.6253 12.375 13.6253C12.4571 13.6253 12.5384 13.6092 12.6143 13.5777C12.6902 13.5463 12.7591 13.5003 12.8172 13.4422C12.8753 13.3841 12.9213 13.3152 12.9527 13.2393C12.9842 13.1634 13.0003 13.0821 13.0003 13C13.0003 12.9179 12.9842 12.8366 12.9527 12.7607C12.9213 12.6848 12.8753 12.6159 12.8172 12.5578Z" fill="#343330"/>
</svg>
