<svg width="20" height="21" viewBox="0 0 20 21" fill="none" xmlns="http://www.w3.org/2000/svg">
<path d="M13.75 3.54614H16.75C16.9489 3.54614 17.1397 3.62516 17.2803 3.76581C17.421 3.90646 17.5 4.09723 17.5 4.29614V16.2961C17.5 16.4951 17.421 16.6858 17.2803 16.8265C17.1397 16.9671 16.9489 17.0461 16.75 17.0461H3.25C3.05109 17.0461 2.86032 16.9671 2.71967 16.8265C2.57902 16.6858 2.5 16.4951 2.5 16.2961V4.29614C2.5 4.09723 2.57902 3.90646 2.71967 3.76581C2.86032 3.62516 3.05109 3.54614 3.25 3.54614H6.25V2.04614H7.75V3.54614H12.25V2.04614H13.75V3.54614ZM16 9.54614H4V15.5461H16V9.54614ZM12.25 5.04614H7.75V6.54614H6.25V5.04614H4V8.04614H16V5.04614H13.75V6.54614H12.25V5.04614ZM5.5 11.0461H7V12.5461H5.5V11.0461ZM9.25 11.0461H10.75V12.5461H9.25V11.0461ZM13 11.0461H14.5V12.5461H13V11.0461Z" fill="#868C98"/>
</svg>
