<svg width="14" height="9" viewBox="0 0 14 9" fill="none" xmlns="http://www.w3.org/2000/svg">
<path d="M13.8273 1.26094C13.7801 1.14673 13.7 1.0491 13.5972 0.980402C13.4944 0.911706 13.3736 0.875026 13.25 0.875H0.750004C0.626319 0.874903 0.505386 0.911506 0.402515 0.980175C0.299644 1.04884 0.21946 1.14649 0.172115 1.26076C0.12477 1.37502 0.112392 1.50076 0.136548 1.62207C0.160705 1.74337 0.220309 1.85478 0.307816 1.94219L6.55782 8.19219C6.61586 8.2503 6.68479 8.2964 6.76067 8.32785C6.83654 8.3593 6.91787 8.37549 7 8.37549C7.08214 8.37549 7.16347 8.3593 7.23934 8.32785C7.31522 8.2964 7.38415 8.2503 7.44219 8.19219L13.6922 1.94219C13.7796 1.85473 13.8391 1.74333 13.8631 1.62206C13.8872 1.5008 13.8747 1.37513 13.8273 1.26094Z" fill="#343330"/>
</svg>
