<svg width="20" height="21" viewBox="0 0 20 21" fill="none" xmlns="http://www.w3.org/2000/svg">
<path fill-rule="evenodd" clip-rule="evenodd" d="M10 16.5461C13.4518 16.5461 16.25 13.7479 16.25 10.2961C16.25 6.84436 13.4518 4.04614 10 4.04614C6.54822 4.04614 3.75 6.84436 3.75 10.2961C3.75 13.7479 6.54822 16.5461 10 16.5461ZM11.1158 13.5047L11.2156 13.0967C11.164 13.121 11.0807 13.1487 10.9665 13.1803C10.852 13.2118 10.7489 13.2279 10.6583 13.2279C10.4654 13.2279 10.3295 13.1963 10.2507 13.1327C10.1724 13.0691 10.1333 12.9496 10.1333 12.7744C10.1333 12.705 10.1451 12.6016 10.1697 12.4662C10.1936 12.3299 10.2211 12.2088 10.2516 12.1028L10.6242 10.7837C10.6607 10.6627 10.6857 10.5296 10.6992 10.3843C10.7129 10.2394 10.7193 10.138 10.7193 10.0804C10.7193 9.80228 10.6218 9.57656 10.4268 9.40243C10.2317 9.22843 9.95393 9.14143 9.59396 9.14143C9.39365 9.14143 9.18188 9.17702 8.95776 9.24815C8.73363 9.31908 8.49933 9.40454 8.25421 9.50434L8.15415 9.91265C8.22719 9.88563 8.31419 9.85657 8.41598 9.82648C8.51732 9.79652 8.61674 9.78103 8.71347 9.78103C8.91096 9.78103 9.04399 9.8147 9.1137 9.88102C9.18342 9.94754 9.21844 10.0658 9.21844 10.235C9.21844 10.3285 9.20736 10.4324 9.18438 10.5453C9.16172 10.659 9.13342 10.7791 9.10013 10.9059L8.72595 12.2303C8.69266 12.3695 8.66834 12.494 8.65304 12.6046C8.63786 12.715 8.63057 12.8234 8.63057 12.9288C8.63057 13.201 8.73114 13.4253 8.93222 13.6024C9.13329 13.7788 9.41523 13.8676 9.77769 13.8676C10.0137 13.8676 10.2209 13.8367 10.3992 13.7747C10.5773 13.7128 10.8164 13.6229 11.1158 13.5047ZM11.0495 8.14635C11.2235 7.98496 11.3101 7.78868 11.3101 7.55886C11.3101 7.32955 11.2236 7.13289 11.0495 6.96945C10.8758 6.80646 10.6666 6.72471 10.4219 6.72471C10.1765 6.72471 9.96635 6.80627 9.79107 6.96945C9.61579 7.13289 9.52796 7.32949 9.52796 7.55886C9.52796 7.78868 9.61579 7.98489 9.79107 8.14635C9.96667 8.30831 10.1764 8.38936 10.4219 8.38936C10.6666 8.38936 10.8758 8.30831 11.0495 8.14635Z" fill="#CDD0D5"/>
</svg>
