<svg width="160" height="40" viewBox="0 0 160 40" fill="none" xmlns="http://www.w3.org/2000/svg">
<g clip-path="url(#clip0_8187_32524)">
<path d="M20.7372 19.1734C23.5483 15.6624 27.8599 11.7195 34.2424 8.95161C34.2165 8.07892 34.1877 7.19758 34.1877 6.30472C27.8282 6.03687 22.1168 4.02938 17.1629 0C12.1744 4.13018 6.41116 5.9879 0.0661147 6.35369C-0.0980558 9.82431 0.0315525 13.1567 0.645032 16.443L13.2948 28.4735C14.0091 29.1532 15.1813 28.9027 15.5529 27.9896C16.5436 25.5588 18.1652 22.3848 20.7343 19.1734H20.7372Z" fill="#03B156"/>
<path d="M23.0094 21.0973C18.2053 27.0391 16.9783 32.9694 16.9668 33.027L16.9466 33.1307C16.7306 34.2108 15.4086 34.6284 14.6108 33.8709L2.13672 22.0161C4.6972 29.3346 9.29686 35.2131 16.0797 39.5794C16.8746 40.0921 17.4996 40.1843 18.2513 39.5794C20.2185 37.9982 22.3671 36.6071 24.1644 34.8531C30.1552 29.0149 33.1966 21.7079 34.1471 13.5051C34.1932 13.099 34.222 12.6929 34.2421 12.2839C29.8268 14.3692 26.0711 17.3099 23.0094 21.1002V21.0973Z" fill="#03B156"/>
</g>
<path d="M48.775 30.5L42.275 11.875H45.975L51.075 27.3H50.35L55.45 11.875H59.15L52.675 30.5H48.775ZM66.1615 30.8C64.7615 30.8 63.5365 30.4833 62.4865 29.85C61.4365 29.2167 60.6199 28.3583 60.0365 27.275C59.4532 26.1917 59.1615 24.9917 59.1615 23.675C59.1615 22.3083 59.4532 21.1 60.0365 20.05C60.6365 18.9833 61.4449 18.1417 62.4615 17.525C63.4949 16.9083 64.6449 16.6 65.9115 16.6C66.9782 16.6 67.9115 16.775 68.7115 17.125C69.5282 17.475 70.2199 17.9583 70.7865 18.575C71.3532 19.1917 71.7865 19.9 72.0865 20.7C72.3865 21.4833 72.5365 22.3333 72.5365 23.25C72.5365 23.4833 72.5199 23.725 72.4865 23.975C72.4699 24.225 72.4282 24.4417 72.3615 24.625H61.8615V22.125H70.5115L68.9615 23.3C69.1115 22.5333 69.0699 21.85 68.8365 21.25C68.6199 20.65 68.2532 20.175 67.7365 19.825C67.2365 19.475 66.6282 19.3 65.9115 19.3C65.2282 19.3 64.6199 19.475 64.0865 19.825C63.5532 20.1583 63.1449 20.6583 62.8615 21.325C62.5949 21.975 62.4949 22.7667 62.5615 23.7C62.4949 24.5333 62.6032 25.275 62.8865 25.925C63.1865 26.5583 63.6199 27.05 64.1865 27.4C64.7699 27.75 65.4365 27.925 66.1865 27.925C66.9365 27.925 67.5699 27.7667 68.0865 27.45C68.6199 27.1333 69.0365 26.7083 69.3365 26.175L71.9865 27.475C71.7199 28.125 71.3032 28.7 70.7365 29.2C70.1699 29.7 69.4949 30.0917 68.7115 30.375C67.9449 30.6583 67.0949 30.8 66.1615 30.8ZM75.0191 30.5V16.9H78.0941V19.925L77.8441 19.475C78.1608 18.4583 78.6525 17.75 79.3191 17.35C80.0025 16.95 80.8191 16.75 81.7691 16.75H82.5691V19.65H81.3941C80.4608 19.65 79.7108 19.9417 79.1441 20.525C78.5775 21.0917 78.2941 21.8917 78.2941 22.925V30.5H75.0191ZM84.3697 30.5V16.9H87.6447V30.5H84.3697ZM84.3697 15.375V11.875H87.6447V15.375H84.3697ZM95.8436 30.8C94.3936 30.8 93.1269 30.4583 92.0436 29.775C90.9769 29.075 90.2436 28.1333 89.8436 26.95L92.2936 25.775C92.6436 26.5417 93.1269 27.1417 93.7436 27.575C94.3769 28.0083 95.0769 28.225 95.8436 28.225C96.4436 28.225 96.9186 28.0917 97.2686 27.825C97.6186 27.5583 97.7936 27.2083 97.7936 26.775C97.7936 26.5083 97.7186 26.2917 97.5686 26.125C97.4352 25.9417 97.2436 25.7917 96.9936 25.675C96.7602 25.5417 96.5019 25.4333 96.2186 25.35L93.9936 24.725C92.8436 24.3917 91.9686 23.8833 91.3686 23.2C90.7852 22.5167 90.4936 21.7083 90.4936 20.775C90.4936 19.9417 90.7019 19.2167 91.1186 18.6C91.5519 17.9667 92.1436 17.475 92.8936 17.125C93.6602 16.775 94.5352 16.6 95.5186 16.6C96.8019 16.6 97.9352 16.9083 98.9186 17.525C99.9019 18.1417 100.602 19.0083 101.019 20.125L98.5186 21.3C98.2852 20.6833 97.8936 20.1917 97.3436 19.825C96.7936 19.4583 96.1769 19.275 95.4936 19.275C94.9436 19.275 94.5102 19.4 94.1936 19.65C93.8769 19.9 93.7186 20.225 93.7186 20.625C93.7186 20.875 93.7852 21.0917 93.9186 21.275C94.0519 21.4583 94.2352 21.6083 94.4686 21.725C94.7186 21.8417 95.0019 21.95 95.3186 22.05L97.4936 22.7C98.6102 23.0333 99.4686 23.5333 100.069 24.2C100.685 24.8667 100.994 25.6833 100.994 26.65C100.994 27.4667 100.777 28.1917 100.344 28.825C99.9102 29.4417 99.3102 29.925 98.5436 30.275C97.7769 30.625 96.8769 30.8 95.8436 30.8ZM110.06 30.8C108.71 30.8 107.494 30.4917 106.41 29.875C105.344 29.2417 104.502 28.3917 103.885 27.325C103.269 26.2417 102.96 25.025 102.96 23.675C102.96 22.325 103.269 21.1167 103.885 20.05C104.502 18.9833 105.344 18.1417 106.41 17.525C107.494 16.9083 108.71 16.6 110.06 16.6C111.027 16.6 111.927 16.775 112.76 17.125C113.594 17.4583 114.31 17.925 114.91 18.525C115.527 19.1083 115.969 19.8083 116.235 20.625L113.36 21.875C113.11 21.1917 112.685 20.6417 112.085 20.225C111.502 19.8083 110.827 19.6 110.06 19.6C109.344 19.6 108.702 19.775 108.135 20.125C107.585 20.475 107.152 20.9583 106.835 21.575C106.519 22.1917 106.36 22.9 106.36 23.7C106.36 24.5 106.519 25.2083 106.835 25.825C107.152 26.4417 107.585 26.925 108.135 27.275C108.702 27.625 109.344 27.8 110.06 27.8C110.844 27.8 111.527 27.5917 112.11 27.175C112.694 26.7583 113.11 26.2 113.36 25.5L116.235 26.8C115.969 27.5667 115.535 28.2583 114.935 28.875C114.335 29.475 113.619 29.95 112.785 30.3C111.952 30.6333 111.044 30.8 110.06 30.8ZM118.72 30.5V16.9H121.795V19.925L121.545 19.475C121.862 18.4583 122.354 17.75 123.02 17.35C123.704 16.95 124.52 16.75 125.47 16.75H126.27V19.65H125.095C124.162 19.65 123.412 19.9417 122.845 20.525C122.279 21.0917 121.995 21.8917 121.995 22.925V30.5H118.72ZM128.071 30.5V16.9H131.346V30.5H128.071ZM128.071 15.375V11.875H131.346V15.375H128.071ZM134.37 35.5V16.9H137.445V19.6L137.145 18.925C137.611 18.1917 138.245 17.625 139.045 17.225C139.845 16.8083 140.77 16.6 141.82 16.6C143.103 16.6 144.261 16.9167 145.295 17.55C146.328 18.1833 147.145 19.0333 147.745 20.1C148.361 21.1667 148.67 22.3667 148.67 23.7C148.67 25.0167 148.37 26.2167 147.77 27.3C147.17 28.3833 146.353 29.2417 145.32 29.875C144.286 30.4917 143.111 30.8 141.795 30.8C140.811 30.8 139.903 30.6083 139.07 30.225C138.253 29.825 137.603 29.2583 137.12 28.525L137.645 27.875V35.5H134.37ZM141.42 27.8C142.17 27.8 142.836 27.625 143.42 27.275C144.003 26.925 144.453 26.4417 144.77 25.825C145.103 25.2083 145.27 24.5 145.27 23.7C145.27 22.9 145.103 22.2 144.77 21.6C144.453 20.9833 144.003 20.5 143.42 20.15C142.836 19.7833 142.17 19.6 141.42 19.6C140.703 19.6 140.053 19.775 139.47 20.125C138.903 20.475 138.453 20.9667 138.12 21.6C137.803 22.2167 137.645 22.9167 137.645 23.7C137.645 24.5 137.803 25.2083 138.12 25.825C138.453 26.4417 138.903 26.925 139.47 27.275C140.053 27.625 140.703 27.8 141.42 27.8ZM157.122 30.65C155.589 30.65 154.397 30.2333 153.547 29.4C152.714 28.55 152.297 27.3583 152.297 25.825V19.825H149.947V16.9H150.197C150.864 16.9 151.381 16.725 151.747 16.375C152.114 16.025 152.297 15.5167 152.297 14.85V13.8H155.572V16.9H158.697V19.825H155.572V25.65C155.572 26.1 155.647 26.4833 155.797 26.8C155.964 27.1167 156.214 27.3583 156.547 27.525C156.897 27.6917 157.339 27.775 157.872 27.775C157.989 27.775 158.122 27.7667 158.272 27.75C158.439 27.7333 158.597 27.7167 158.747 27.7V30.5C158.514 30.5333 158.247 30.5667 157.947 30.6C157.647 30.6333 157.372 30.65 157.122 30.65Z" fill="#4D4D4D"/>
<defs>
<clipPath id="clip0_8187_32524">
<rect width="34.2425" height="40" fill="white"/>
</clipPath>
</defs>
</svg>
