<svg width="20" height="21" viewBox="0 0 20 21" fill="none" xmlns="http://www.w3.org/2000/svg">
<path d="M3.25 4.04614H16.75C16.9489 4.04614 17.1397 4.12516 17.2803 4.26581C17.421 4.40646 17.5 4.59723 17.5 4.79614V15.7961C17.5 15.9951 17.421 16.1858 17.2803 16.3265C17.1397 16.4671 16.9489 16.5461 16.75 16.5461H3.25C3.05109 16.5461 2.86032 16.4671 2.71967 16.3265C2.57902 16.1858 2.5 15.9951 2.5 15.7961V4.79614C2.5 4.59723 2.57902 4.40646 2.71967 4.26581C2.86032 4.12516 3.05109 4.04614 3.25 4.04614ZM16 7.22464L10.054 12.5496L4 7.20814V15.0461H16V7.22464ZM4.38325 5.54614L10.0457 10.5426L15.6265 5.54614H4.38325Z" fill="#868C98"/>
</svg>
