<svg width="20" height="21" viewBox="0 0 20 21" fill="none" xmlns="http://www.w3.org/2000/svg">
<path d="M10 5.29614C9.38193 5.29614 8.77775 5.47942 8.26384 5.8228C7.74994 6.16618 7.3494 6.65424 7.11288 7.22526C6.87635 7.79628 6.81447 8.42461 6.93505 9.0308C7.05562 9.63699 7.35325 10.1938 7.79029 10.6309C8.22733 11.0679 8.78415 11.3655 9.39034 11.4861C9.99653 11.6067 10.6249 11.5448 11.1959 11.3083C11.7669 11.0717 12.255 10.6712 12.5983 10.1573C12.9417 9.6434 13.125 9.03921 13.125 8.42114C13.125 7.59234 12.7958 6.79748 12.2097 6.21143C11.6237 5.62538 10.8288 5.29614 10 5.29614ZM10 10.2961C9.62916 10.2961 9.26665 10.1862 8.95831 9.98015C8.64996 9.77412 8.40964 9.48129 8.26773 9.13867C8.12581 8.79606 8.08868 8.41906 8.16103 8.05535C8.23337 7.69163 8.41195 7.35754 8.67417 7.09532C8.9364 6.83309 9.27049 6.65452 9.63421 6.58217C9.99792 6.50982 10.3749 6.54695 10.7175 6.68887C11.0601 6.83078 11.353 7.07111 11.559 7.37945C11.765 7.68779 11.875 8.0503 11.875 8.42114C11.875 8.91842 11.6775 9.39534 11.3258 9.74697C10.9742 10.0986 10.4973 10.2961 10 10.2961ZM10 1.54614C8.17727 1.54821 6.42979 2.2732 5.14092 3.56207C3.85206 4.85093 3.12707 6.59841 3.125 8.42114C3.125 10.8743 4.25859 13.4743 6.40625 15.9407C7.37127 17.0552 8.45739 18.0588 9.64453 18.9329C9.74962 19.0065 9.87482 19.046 10.0031 19.046C10.1314 19.046 10.2566 19.0065 10.3617 18.9329C11.5467 18.0584 12.6307 17.0548 13.5938 15.9407C15.7383 13.4743 16.875 10.8743 16.875 8.42114C16.8729 6.59841 16.1479 4.85093 14.8591 3.56207C13.5702 2.2732 11.8227 1.54821 10 1.54614ZM10 17.6399C8.70859 16.6243 4.375 12.8938 4.375 8.42114C4.375 6.9293 4.96763 5.49856 6.02252 4.44367C7.07742 3.38877 8.50816 2.79614 10 2.79614C11.4918 2.79614 12.9226 3.38877 13.9775 4.44367C15.0324 5.49856 15.625 6.9293 15.625 8.42114C15.625 12.8922 11.2914 16.6243 10 17.6399Z" fill="#808080"/>
</svg>
