<svg width="292" height="153" viewBox="0 0 292 153" fill="none" xmlns="http://www.w3.org/2000/svg">
<path opacity="0.2" d="M184.393 242.361C185.144 251.773 175.219 258.318 166.862 253.943L7.22236 170.227C1.66937 167.314 -0.68974 160.644 1.75705 154.891L2.47163 153.25C5.23821 146.817 12.8816 144.078 19.0991 147.341L143.404 212.537C150.889 216.466 159.971 211.65 160.894 203.25C163.366 180.883 169.299 150.909 182.959 118.403C207.724 59.4838 263.613 -18.8365 389.354 -62.4493C395.732 -64.6736 402.695 -61.135 404.736 -54.682L405.557 -52.0662C407.492 -45.8914 404.162 -39.2716 398.033 -37.1692C303.832 -4.63073 239.336 51.1872 206.201 128.889C180.508 189.151 184.293 240.926 184.333 241.428L184.41 242.331L184.393 242.361Z" fill="white"/>
</svg>
