<svg width="25" height="25" viewBox="0 0 25 25" fill="none" xmlns="http://www.w3.org/2000/svg">
<path d="M12.3335 11.75H9.3335V7.25H12.3335C12.9302 7.25 13.5025 7.48705 13.9245 7.90901C14.3464 8.33097 14.5835 8.90326 14.5835 9.5C14.5835 10.0967 14.3464 10.669 13.9245 11.091C13.5025 11.5129 12.9302 11.75 12.3335 11.75ZM21.3335 5V20C21.3335 20.3978 21.1755 20.7794 20.8942 21.0607C20.6129 21.342 20.2313 21.5 19.8335 21.5H4.8335C4.43567 21.5 4.05414 21.342 3.77284 21.0607C3.49153 20.7794 3.3335 20.3978 3.3335 20V5C3.3335 4.60218 3.49153 4.22064 3.77284 3.93934C4.05414 3.65804 4.43567 3.5 4.8335 3.5H19.8335C20.2313 3.5 20.6129 3.65804 20.8942 3.93934C21.1755 4.22064 21.3335 4.60218 21.3335 5ZM18.1141 17.9694L16.7688 16.625L18.1141 15.2806C18.2549 15.1399 18.3339 14.949 18.3339 14.75C18.3339 14.551 18.2549 14.3601 18.1141 14.2194C17.9734 14.0786 17.7825 13.9996 17.5835 13.9996C17.3845 13.9996 17.1936 14.0786 17.0529 14.2194L15.7085 15.5647L13.271 13.1272C14.1514 12.8962 14.9178 12.3528 15.4271 11.5984C15.9365 10.8441 16.1541 9.93019 16.0393 9.02722C15.9246 8.12425 15.4853 7.29384 14.8035 6.69085C14.1216 6.08786 13.2437 5.75346 12.3335 5.75H8.5835C8.38458 5.75 8.19382 5.82902 8.05317 5.96967C7.91251 6.11032 7.8335 6.30109 7.8335 6.5V17C7.8335 17.1989 7.91251 17.3897 8.05317 17.5303C8.19382 17.671 8.38458 17.75 8.5835 17.75C8.78241 17.75 8.97317 17.671 9.11383 17.5303C9.25448 17.3897 9.3335 17.1989 9.3335 17V13.25H11.2732L14.6482 16.625L13.3029 17.9694C13.1621 18.1101 13.0831 18.301 13.0831 18.5C13.0831 18.699 13.1621 18.8899 13.3029 19.0306C13.4436 19.1714 13.6345 19.2504 13.8335 19.2504C14.0325 19.2504 14.2234 19.1714 14.3641 19.0306L15.7085 17.6853L17.0529 19.0306C17.1226 19.1003 17.2053 19.1556 17.2963 19.1933C17.3874 19.231 17.485 19.2504 17.5835 19.2504C17.682 19.2504 17.7796 19.231 17.8707 19.1933C17.9617 19.1556 18.0444 19.1003 18.1141 19.0306C18.1838 18.9609 18.2391 18.8782 18.2768 18.7872C18.3145 18.6961 18.3339 18.5985 18.3339 18.5C18.3339 18.4015 18.3145 18.3039 18.2768 18.2128C18.2391 18.1218 18.1838 18.0391 18.1141 17.9694Z" fill="#E10000"/>
</svg>
