<svg width="12" height="16" viewBox="0 0 12 16" fill="none" xmlns="http://www.w3.org/2000/svg">
<path d="M12 15.7961H10.5V14.2961C10.5 13.6994 10.2629 13.1271 9.84099 12.7052C9.41903 12.2832 8.84674 12.0461 8.25 12.0461H3.75C3.15326 12.0461 2.58097 12.2832 2.15901 12.7052C1.73705 13.1271 1.5 13.6994 1.5 14.2961V15.7961H0V14.2961C0 13.3016 0.395088 12.3478 1.09835 11.6445C1.80161 10.9412 2.75544 10.5461 3.75 10.5461H8.25C9.24456 10.5461 10.1984 10.9412 10.9017 11.6445C11.6049 12.3478 12 13.3016 12 14.2961V15.7961ZM6 9.04614C5.40905 9.04614 4.82389 8.92975 4.27792 8.7036C3.73196 8.47745 3.23588 8.14599 2.81802 7.72812C2.40016 7.31026 2.06869 6.81418 1.84254 6.26822C1.6164 5.72225 1.5 5.13709 1.5 4.54614C1.5 3.95519 1.6164 3.37003 1.84254 2.82407C2.06869 2.2781 2.40016 1.78203 2.81802 1.36416C3.23588 0.946298 3.73196 0.614831 4.27792 0.388685C4.82389 0.162538 5.40905 0.0461426 6 0.0461426C7.19347 0.0461426 8.33807 0.520248 9.18198 1.36416C10.0259 2.20808 10.5 3.35267 10.5 4.54614C10.5 5.73962 10.0259 6.88421 9.18198 7.72812C8.33807 8.57204 7.19347 9.04614 6 9.04614ZM6 7.54614C6.79565 7.54614 7.55871 7.23007 8.12132 6.66746C8.68393 6.10485 9 5.34179 9 4.54614C9 3.75049 8.68393 2.98743 8.12132 2.42482C7.55871 1.86221 6.79565 1.54614 6 1.54614C5.20435 1.54614 4.44129 1.86221 3.87868 2.42482C3.31607 2.98743 3 3.75049 3 4.54614C3 5.34179 3.31607 6.10485 3.87868 6.66746C4.44129 7.23007 5.20435 7.54614 6 7.54614Z" fill="#868C98"/>
</svg>
